<svg xmlns="http://www.w3.org/2000/svg" version="1.1" xmlns:xlink="http://www.w3.org/1999/xlink" xmlns:svgjs="http://svgjs.dev/svgjs" width="128" height="128" viewBox="0 0 128 128"><g transform="matrix(0.8046875,0,0,0.8046875,12.221578124999994,16.882326409258553)"><svg viewBox="0 0 96 87" data-background-color="#ffffff" preserveAspectRatio="xMidYMid meet" height="116" width="128" xmlns="http://www.w3.org/2000/svg" xmlns:xlink="http://www.w3.org/1999/xlink"><g id="tight-bounds" transform="matrix(1,0,0,1,0.25950000000000273,0.41550159913765583)"><svg viewBox="0 0 95.481 86.1689968017247" height="86.1689968017247" width="95.481"><g><svg viewBox="0 0 95.481 86.1689968017247" height="86.1689968017247" width="95.481"><g><svg viewBox="0 0 95.481 86.1689968017247" height="86.1689968017247" width="95.481"><g id="textblocktransform"><svg viewBox="0 0 95.481 86.1689968017247" height="86.1689968017247" width="95.481" id="textblock"><g><svg viewBox="0 0 95.481 86.1689968017247" height="86.1689968017247" width="95.481"><g><svg viewBox="0 0 95.481 86.1689968017247" height="86.1689968017247" width="95.481"><g><svg xmlns="http://www.w3.org/2000/svg" xmlns:xlink="http://www.w3.org/1999/xlink" version="1.1" x="0" y="0" viewBox="9.415 13.726000328150644 81.08500000000001 73.17699967184936" enable-background="new 0 0 100 100" xml:space="preserve" height="86.1689968017247" width="95.481" class="icon-icon-0" data-fill-palette-color="accent" id="icon-0"><circle cx="32.313" cy="30.166" r="16" fill="#8873ef" data-fill-palette-color="accent"></circle><path d="M46.902 55.761V63.349A22.8 22.8 0 0 0 32.313 58.101C19.666 58.101 9.415 68.348 9.415 80.999H46.902V86.903H90.5V55.761zM62.95 76.099A1.502 1.502 0 0 1 60.942 78.329L53.256 71.411A1.5 1.5 0 0 1 53.237 69.199L60.923 62.024A1.5 1.5 0 0 1 62.97 64.217L56.481 70.275zM72.263 59.868L67.394 81.135A1.5 1.5 0 0 1 64.47 80.465L69.339 59.198A1.494 1.494 0 0 1 71.136 58.071 1.5 1.5 0 0 1 72.263 59.868M83.448 71.411L75.761 78.329A1.5 1.5 0 0 1 73.642 78.218 1.5 1.5 0 0 1 73.753 76.099L80.224 70.276 73.734 64.218A1.5 1.5 0 1 1 75.781 62.025L83.468 69.2A1.5 1.5 0 0 1 83.448 71.411" fill="#8873ef" data-fill-palette-color="accent"></path></svg></g></svg></g></svg></g></svg></g></svg></g></svg></g><defs></defs></svg><rect width="95.481" height="86.1689968017247" fill="none" stroke="none" visibility="hidden"></rect></g></svg></g></svg>